<?xml version="1.0" encoding="utf-8"?>
<!-- Generator: Adobe Illustrator 21.1.0, SVG Export Plug-In . SVG Version: 6.00 Build 0)  -->
<svg version="1.1" id="Calque_1" xmlns="http://www.w3.org/2000/svg" xmlns:xlink="http://www.w3.org/1999/xlink" x="0px" y="0px"
	 viewBox="0 0 500 500" style="enable-background:new 0 0 500 500;" xml:space="preserve">
<style type="text/css">
	.st0{fill:url(#SVGID_1_);}
	.st1{fill:url(#SVGID_2_);}
	.st2{fill:url(#SVGID_3_);}
	.st3{fill:url(#SVGID_4_);}
	.st4{fill:#776EB1;}
</style>
<g>
	
		<linearGradient id="SVGID_1_" gradientUnits="userSpaceOnUse" x1="56.4606" y1="177.2711" x2="443.5423" y2="400.7529" gradientTransform="matrix(1 0 0 -1 0 500)">
		<stop  offset="0" style="stop-color:#696DB1"/>
		<stop  offset="7.516069e-02" style="stop-color:#9D73B0"/>
		<stop  offset="0.1503" style="stop-color:#C276AF"/>
		<stop  offset="0.216" style="stop-color:#D977AD"/>
		<stop  offset="0.2698" style="stop-color:#E777AC"/>
		<stop  offset="0.305" style="stop-color:#EC77AB"/>
		<stop  offset="0.3339" style="stop-color:#E977AC"/>
		<stop  offset="0.3657" style="stop-color:#E077AC"/>
		<stop  offset="0.399" style="stop-color:#D277AE"/>
		<stop  offset="0.4333" style="stop-color:#BD76AF"/>
		<stop  offset="0.4684" style="stop-color:#9E73B0"/>
		<stop  offset="0.5036" style="stop-color:#736EB1"/>
		<stop  offset="0.51" style="stop-color:#696DB1"/>
		<stop  offset="0.5199" style="stop-color:#8070B1"/>
		<stop  offset="0.5438" style="stop-color:#AB74AF"/>
		<stop  offset="0.5663" style="stop-color:#C976AE"/>
		<stop  offset="0.5868" style="stop-color:#DC77AD"/>
		<stop  offset="0.6045" style="stop-color:#E777AC"/>
		<stop  offset="0.6175" style="stop-color:#EB77AB"/>
		<stop  offset="0.6801" style="stop-color:#E977AC"/>
		<stop  offset="0.7394" style="stop-color:#E177AC"/>
		<stop  offset="0.7973" style="stop-color:#D577AD"/>
		<stop  offset="0.8545" style="stop-color:#C376AF"/>
		<stop  offset="0.9111" style="stop-color:#A974AF"/>
		<stop  offset="0.9665" style="stop-color:#8670B1"/>
		<stop  offset="1" style="stop-color:#696DB1"/>
	</linearGradient>
	<polygon class="st0" points="413.6,112.8 413.6,47.4 86.4,309.2 86.4,374.6 	"/>
	
		<linearGradient id="SVGID_2_" gradientUnits="userSpaceOnUse" x1="86.4015" y1="158.112" x2="413.6015" y2="158.112" gradientTransform="matrix(1 0 0 -1 0 500)">
		<stop  offset="0" style="stop-color:#EC77AB"/>
		<stop  offset="0.4052" style="stop-color:#EB77AC"/>
		<stop  offset="0.5512" style="stop-color:#E677AC"/>
		<stop  offset="0.6552" style="stop-color:#DF77AD"/>
		<stop  offset="0.7394" style="stop-color:#D477AD"/>
		<stop  offset="0.8115" style="stop-color:#C576AE"/>
		<stop  offset="0.8752" style="stop-color:#B175AF"/>
		<stop  offset="0.933" style="stop-color:#9772B0"/>
		<stop  offset="0.9843" style="stop-color:#766FB1"/>
		<stop  offset="1" style="stop-color:#696DB1"/>
	</linearGradient>
	<rect x="86.4" y="309.2" class="st1" width="327.2" height="65.4"/>
	
		<linearGradient id="SVGID_3_" gradientUnits="userSpaceOnUse" x1="86.4015" y1="419.912" x2="413.6015" y2="419.912" gradientTransform="matrix(1 0 0 -1 0 500)">
		<stop  offset="0" style="stop-color:#696DB1"/>
		<stop  offset="4.487735e-02" style="stop-color:#7E6FB1"/>
		<stop  offset="0.141" style="stop-color:#A073B0"/>
		<stop  offset="0.244" style="stop-color:#BA75AF"/>
		<stop  offset="0.3537" style="stop-color:#CD77AE"/>
		<stop  offset="0.4723" style="stop-color:#DB77AD"/>
		<stop  offset="0.6042" style="stop-color:#E577AC"/>
		<stop  offset="0.76" style="stop-color:#EA77AC"/>
		<stop  offset="1" style="stop-color:#EC77AB"/>
	</linearGradient>
	<rect x="86.4" y="47.4" class="st2" width="327.2" height="65.4"/>
	
		<linearGradient id="SVGID_4_" gradientUnits="userSpaceOnUse" x1="86.4015" y1="289.012" x2="413.6015" y2="289.012" gradientTransform="matrix(1 0 0 -1 0 500)">
		<stop  offset="0" style="stop-color:#EC77AB"/>
		<stop  offset="1" style="stop-color:#EC77AB"/>
	</linearGradient>
	<polygon class="st3" points="86.4,112.8 86.4,47.4 413.6,309.2 413.6,374.6 	"/>
</g>
<g>
	<path class="st4" d="M118.7,429.2c-1.3,1.8-3.1,3.2-5.4,4.1c-2.3,0.9-5,1.4-8,1.4c-3.1,0-5.8-0.7-8.2-2.2c-2.4-1.4-4.2-3.5-5.5-6.2
		s-2-5.8-2-9.3v-3.3c0-5.7,1.3-10.1,4-13.3c2.7-3.1,6.4-4.7,11.2-4.7c4,0,7.1,1,9.5,3s3.9,4.9,4.4,8.6h-5c-0.9-5-3.9-7.5-8.9-7.5
		c-3.3,0-5.9,1.2-7.6,3.5s-2.6,5.8-2.6,10.2v3.1c0,4.2,1,7.6,2.9,10.1c1.9,2.5,4.6,3.8,7.9,3.8c1.9,0,3.5-0.2,4.9-0.6
		s2.6-1.1,3.5-2.1v-8.5H105v-4.1h13.7V429.2z"/>
	<path class="st4" d="M138,434.7c-3.8,0-6.9-1.3-9.3-3.8s-3.6-5.9-3.6-10V420c0-2.8,0.5-5.3,1.6-7.5c1.1-2.2,2.6-3.9,4.5-5.1
		c1.9-1.2,4-1.9,6.2-1.9c3.7,0,6.5,1.2,8.5,3.6c2,2.4,3,5.9,3,10.3v2h-19c0.1,2.8,0.9,5,2.4,6.7c1.6,1.7,3.5,2.6,5.9,2.6
		c1.7,0,3.1-0.3,4.3-1c1.2-0.7,2.2-1.6,3.1-2.8l2.9,2.3C146.2,432.9,142.7,434.7,138,434.7z M137.4,409.5c-1.9,0-3.6,0.7-4.9,2.1
		c-1.3,1.4-2.1,3.4-2.4,5.9h14.1v-0.4c-0.1-2.4-0.8-4.3-2-5.7C141,410.2,139.4,409.5,137.4,409.5z"/>
	<path class="st4" d="M161,399.3v6.8h5.3v3.7H161v17.5c0,1.1,0.2,2,0.7,2.5s1.3,0.8,2.4,0.8c0.6,0,1.3-0.1,2.3-0.3v3.9
		c-1.3,0.3-2.5,0.5-3.7,0.5c-2.1,0-3.8-0.6-4.9-1.9c-1.1-1.3-1.6-3.1-1.6-5.5v-17.4h-5.1v-3.7h5.1v-6.8H161z"/>
	<path class="st4" d="M201.4,426.7c0-1.3-0.5-2.3-1.5-3s-2.7-1.3-5.1-1.9c-2.4-0.5-4.4-1.1-5.8-1.9c-1.4-0.7-2.5-1.6-3.2-2.6
		s-1-2.2-1-3.6c0-2.3,1-4.3,2.9-5.8c1.9-1.6,4.4-2.4,7.5-2.4c3.2,0,5.8,0.8,7.8,2.5c2,1.6,3,3.8,3,6.3h-4.8c0-1.3-0.6-2.5-1.7-3.4
		s-2.5-1.4-4.2-1.4c-1.8,0-3.1,0.4-4.1,1.1c-1,0.8-1.5,1.8-1.5,3c0,1.2,0.5,2,1.4,2.6c0.9,0.6,2.6,1.2,5,1.7
		c2.4,0.5,4.3,1.2,5.8,1.9c1.5,0.7,2.6,1.6,3.3,2.7c0.7,1,1.1,2.3,1.1,3.8c0,2.5-1,4.5-3,6c-2,1.5-4.6,2.3-7.8,2.3
		c-2.3,0-4.2-0.4-6-1.2s-3.1-1.9-4.1-3.3c-1-1.4-1.5-3-1.5-4.6h4.8c0.1,1.6,0.7,2.9,1.9,3.8c1.2,0.9,2.8,1.4,4.8,1.4
		c1.8,0,3.3-0.4,4.4-1.1C200.9,428.9,201.4,428,201.4,426.7z"/>
	<path class="st4" d="M217.3,409.5c2.1-2.6,4.9-3.9,8.3-3.9c5.9,0,8.9,3.4,9,10.1v18.6h-4.8v-18.6c0-2-0.5-3.5-1.4-4.5
		c-0.9-1-2.3-1.5-4.2-1.5c-1.6,0-2.9,0.4-4.1,1.2c-1.2,0.8-2.1,1.9-2.8,3.3v20h-4.8v-39.9h4.8V409.5z"/>
	<path class="st4" d="M241.8,398.6c0-0.8,0.2-1.4,0.7-2s1.2-0.8,2.1-0.8s1.6,0.3,2.1,0.8c0.5,0.5,0.7,1.2,0.7,2
		c0,0.8-0.2,1.4-0.7,1.9c-0.5,0.5-1.2,0.8-2.1,0.8s-1.6-0.3-2.1-0.8S241.8,399.4,241.8,398.6z M247,434.2h-4.8v-28.1h4.8V434.2z"/>
	<path class="st4" d="M261.3,399.3v6.8h5.2v3.7h-5.2v17.5c0,1.1,0.2,2,0.7,2.5s1.3,0.8,2.4,0.8c0.6,0,1.3-0.1,2.3-0.3v3.9
		c-1.3,0.3-2.5,0.5-3.7,0.5c-2.1,0-3.8-0.6-4.9-1.9c-1.1-1.3-1.6-3.1-1.6-5.5v-17.4h-5.1v-3.7h5.1v-6.8H261.3z"/>
	<path class="st4" d="M284.1,419.9c0-4.3,1-7.8,3.1-10.4c2-2.6,4.7-3.9,8-3.9c3.3,0,5.9,1.1,7.8,3.4v-14.7h4.8v39.9h-4.4l-0.2-3
		c-1.9,2.4-4.6,3.5-8,3.5c-3.3,0-5.9-1.3-8-4c-2.1-2.7-3.1-6.2-3.1-10.4V419.9z M288.9,420.4c0,3.2,0.7,5.7,2,7.5
		c1.3,1.8,3.1,2.7,5.5,2.7c3,0,5.3-1.4,6.7-4.1v-12.9c-1.4-2.7-3.6-4-6.6-4c-2.4,0-4.2,0.9-5.5,2.7S288.9,416.9,288.9,420.4z"/>
	<path class="st4" d="M314,419.9c0-2.8,0.5-5.2,1.6-7.4s2.6-3.9,4.5-5.1c1.9-1.2,4.1-1.8,6.6-1.8c3.8,0,6.9,1.3,9.3,4
		c2.4,2.7,3.5,6.2,3.5,10.6v0.3c0,2.7-0.5,5.2-1.6,7.4c-1,2.2-2.5,3.9-4.5,5.1c-1.9,1.2-4.2,1.8-6.7,1.8c-3.8,0-6.9-1.3-9.3-4
		c-2.4-2.7-3.5-6.2-3.5-10.5V419.9z M318.9,420.4c0,3.1,0.7,5.6,2.2,7.5c1.4,1.9,3.4,2.8,5.8,2.8c2.4,0,4.4-1,5.8-2.9
		c1.4-1.9,2.2-4.6,2.2-8c0-3.1-0.7-5.6-2.2-7.5c-1.5-1.9-3.4-2.9-5.8-2.9c-2.4,0-4.3,0.9-5.7,2.8
		C319.6,414.2,318.9,416.9,318.9,420.4z"/>
	<path class="st4" d="M350.2,406.1l0.2,3.5c2.1-2.7,5-4.1,8.4-4.1c5.9,0,8.9,3.4,9,10.1v18.6H363v-18.6c0-2-0.5-3.5-1.4-4.5
		c-0.9-1-2.3-1.5-4.2-1.5c-1.6,0-2.9,0.4-4.1,1.2c-1.2,0.8-2.1,1.9-2.8,3.3v20h-4.8v-28.1H350.2z"/>
	<path class="st4" d="M386.7,434.7c-3.8,0-6.9-1.3-9.3-3.8c-2.4-2.5-3.6-5.9-3.6-10V420c0-2.8,0.5-5.3,1.6-7.5
		c1.1-2.2,2.6-3.9,4.5-5.1c1.9-1.2,4-1.9,6.2-1.9c3.7,0,6.5,1.2,8.5,3.6s3,5.9,3,10.3v2h-19c0.1,2.8,0.9,5,2.4,6.7
		c1.5,1.7,3.5,2.6,5.9,2.6c1.7,0,3.1-0.3,4.3-1c1.2-0.7,2.2-1.6,3.1-2.8l2.9,2.3C394.9,432.9,391.4,434.7,386.7,434.7z M386.1,409.5
		c-1.9,0-3.6,0.7-4.9,2.1c-1.3,1.4-2.1,3.4-2.4,5.9h14.1v-0.4c-0.1-2.4-0.8-4.3-2-5.7C389.7,410.2,388.1,409.5,386.1,409.5z"/>
	<path class="st4" d="M403.3,431.7c0-0.8,0.2-1.5,0.7-2.1c0.5-0.6,1.2-0.8,2.2-0.8s1.7,0.3,2.2,0.8s0.8,1.2,0.8,2.1
		c0,0.8-0.3,1.5-0.8,2c-0.5,0.5-1.3,0.8-2.2,0.8s-1.7-0.3-2.2-0.8C403.6,433.1,403.3,432.5,403.3,431.7z"/>
</g>
</svg>
